<svg width="156" height="21" viewBox="0 0 156 21" fill="none" xmlns="http://www.w3.org/2000/svg">
<path d="M0.00200012 2.72H3.324L8.054 11.388L9.682 14.908H9.792C9.704 14.0573 9.60867 13.126 9.506 12.114C9.418 11.102 9.374 10.134 9.374 9.21V2.72H12.454V19H9.154L4.446 10.288L2.796 6.79H2.686C2.75933 7.67 2.84 8.60133 2.928 9.584C3.03067 10.5667 3.082 11.5273 3.082 12.466V19H0.00200012V2.72ZM21.5625 19.308C20.6972 19.308 19.8905 19.1613 19.1425 18.868C18.4092 18.5747 17.7638 18.1567 17.2065 17.614C16.6638 17.0567 16.2312 16.382 15.9085 15.59C15.6005 14.7833 15.4465 13.874 15.4465 12.862C15.4465 11.8647 15.6078 10.97 15.9305 10.178C16.2532 9.37133 16.6785 8.68933 17.2065 8.132C17.7492 7.56 18.3652 7.12733 19.0545 6.834C19.7438 6.526 20.4552 6.372 21.1885 6.372C22.0392 6.372 22.7798 6.51867 23.4105 6.812C24.0558 7.10533 24.5912 7.516 25.0165 8.044C25.4565 8.572 25.7865 9.19533 26.0065 9.914C26.2265 10.6327 26.3365 11.4173 26.3365 12.268C26.3365 12.5613 26.3218 12.8473 26.2925 13.126C26.2632 13.39 26.2265 13.5953 26.1825 13.742H18.5925C18.7245 14.754 19.0912 15.524 19.6925 16.052C20.3085 16.5653 21.0785 16.822 22.0025 16.822C22.5158 16.822 22.9925 16.7487 23.4325 16.602C23.8872 16.4553 24.3345 16.2427 24.7745 15.964L25.8745 17.944C25.2585 18.3693 24.5765 18.7067 23.8285 18.956C23.0952 19.1907 22.3398 19.308 21.5625 19.308ZM23.5645 11.608C23.5645 10.772 23.3738 10.112 22.9925 9.628C22.6112 9.12933 22.0245 8.88 21.2325 8.88C20.5872 8.88 20.0078 9.11467 19.4945 9.584C18.9812 10.0387 18.6658 10.7133 18.5485 11.608H23.5645ZM33.5097 19.308C32.7764 19.308 32.1531 19.198 31.6397 18.978C31.1264 18.758 30.7084 18.45 30.3857 18.054C30.0631 17.6433 29.8284 17.152 29.6817 16.58C29.5351 16.008 29.4617 15.3773 29.4617 14.688V9.232H27.7237V6.834L29.6157 6.68L29.9897 3.38H32.6957V6.68H35.7317V9.232H32.6957V14.688C32.6957 16.0667 33.2531 16.756 34.3677 16.756C34.5731 16.756 34.7857 16.734 35.0057 16.69C35.2257 16.6313 35.4164 16.5653 35.5777 16.492L36.1057 18.846C35.7684 18.9633 35.3871 19.066 34.9617 19.154C34.5364 19.2567 34.0524 19.308 33.5097 19.308ZM44.816 3.952C44.6107 3.87867 44.3907 3.82 44.156 3.776C43.936 3.71733 43.7233 3.688 43.518 3.688C43.034 3.688 42.66 3.842 42.396 4.15C42.1467 4.44333 42.022 4.93467 42.022 5.624V6.68H44.332V9.232H42.022V19H38.788V9.232H37.138V6.834L38.788 6.702V5.69C38.788 5.04467 38.8613 4.44333 39.008 3.886C39.1693 3.32867 39.4187 2.852 39.756 2.456C40.108 2.04533 40.5553 1.72267 41.098 1.488C41.6407 1.25333 42.3007 1.136 43.078 1.136C43.5473 1.136 43.98 1.18 44.376 1.268C44.7867 1.356 45.1313 1.45867 45.41 1.576L44.816 3.952ZM46.4675 19V1.444H49.6355V19H46.4675ZM53.2341 6.68H56.4461V19H53.2341V6.68ZM54.8621 4.7C54.3048 4.7 53.8428 4.53867 53.4761 4.216C53.1094 3.87867 52.9261 3.45333 52.9261 2.94C52.9261 2.412 53.1094 1.98667 53.4761 1.664C53.8428 1.34133 54.3048 1.18 54.8621 1.18C55.4194 1.18 55.8741 1.34133 56.2261 1.664C56.5928 1.98667 56.7761 2.412 56.7761 2.94C56.7761 3.45333 56.5928 3.87867 56.2261 4.216C55.8741 4.53867 55.4194 4.7 54.8621 4.7ZM62.3797 12.576L58.7717 6.68H62.2477L63.4797 8.88C63.8464 9.584 64.2131 10.2733 64.5797 10.948H64.6677C64.8144 10.6107 64.9611 10.266 65.1077 9.914C65.2691 9.562 65.4231 9.21733 65.5697 8.88L66.6037 6.68H69.9477L66.3397 12.95L70.1897 19H66.7137L65.3497 16.756C65.1444 16.3893 64.9464 16.0227 64.7557 15.656C64.5651 15.2893 64.3671 14.93 64.1617 14.578H64.0517C63.8757 14.93 63.6997 15.2893 63.5237 15.656C63.3624 16.008 63.1937 16.3747 63.0177 16.756L61.8737 19H58.5297L62.3797 12.576ZM79.8936 13.94C80.847 13.9107 81.7636 13.8667 82.6436 13.808C83.5383 13.7347 84.4696 13.61 85.4376 13.434L85.6576 15.788C84.4256 16.0227 83.2376 16.1767 82.0936 16.25C80.9496 16.3087 79.7323 16.338 78.4416 16.338H77.0336V2.962H84.5356V5.316H79.8936V13.94ZM93.8416 0.607999V20.892H91.0916V10.75H89.2656V19.946H86.5596V1.004H89.2656V8.418H91.0916V0.607999H93.8416ZM108.624 5.03H96.6999V2.764H101.188V0.607999H104.114V2.764H108.646L108.624 5.03ZM100.462 9.65C100.462 10.2073 100.66 10.6327 101.056 10.926C101.467 11.2193 102.002 11.366 102.662 11.366C103.307 11.366 103.835 11.2193 104.246 10.926C104.657 10.6327 104.862 10.2073 104.862 9.65C104.862 9.09267 104.657 8.67467 104.246 8.396C103.835 8.10267 103.307 7.956 102.662 7.956C102.002 7.956 101.467 8.10267 101.056 8.396C100.66 8.67467 100.462 9.09267 100.462 9.65ZM107.634 9.65C107.634 10.2367 107.509 10.772 107.26 11.256C107.011 11.7253 106.666 12.136 106.226 12.488C105.786 12.8253 105.258 13.0893 104.642 13.28C104.041 13.4707 103.381 13.566 102.662 13.566C101.929 13.566 101.254 13.4707 100.638 13.28C100.037 13.0893 99.5159 12.8253 99.0759 12.488C98.6359 12.136 98.2912 11.7253 98.0419 11.256C97.8072 10.772 97.6899 10.2367 97.6899 9.65C97.6899 9.078 97.8072 8.55733 98.0419 8.088C98.2912 7.604 98.6359 7.19333 99.0759 6.856C99.5159 6.504 100.037 6.23267 100.638 6.042C101.254 5.85133 101.929 5.756 102.662 5.756C103.381 5.756 104.041 5.85133 104.642 6.042C105.258 6.23267 105.786 6.504 106.226 6.856C106.666 7.19333 107.011 7.604 107.26 8.088C107.509 8.55733 107.634 9.078 107.634 9.65ZM102.486 18.23H113.376V20.54H99.5819V14.666H102.486V18.23ZM115.334 6.812V9.21H112.65V15.788H109.746V0.629999H112.65V6.812H115.334ZM133.768 15.04H130.842V0.629999H133.768V15.04ZM124.946 4.524H120.81V9.738H124.946V4.524ZM127.784 12.026H117.95V2.236H127.784V12.026ZM134.274 18.142V20.474H120.282V13.764H123.186V18.142H134.274ZM147.78 10.794V13.654H153.412V20.892H150.486V15.942H139.024V13.654H144.876V10.794H137.176V8.484H150.068C150.259 7.56 150.376 6.724 150.42 5.976C150.479 5.21333 150.508 4.49467 150.508 3.82H139.442V1.488H153.368V3.116C153.368 3.87867 153.354 4.69267 153.324 5.558C153.295 6.42333 153.178 7.39867 152.972 8.484H155.524V10.794H147.78Z" fill="#ACACAC"/>
</svg>
